<svg width="16" height="16" viewBox="0 0 16 16" fill="none" xmlns="http://www.w3.org/2000/svg">
<path fill-rule="evenodd" clip-rule="evenodd" d="M5.2572 2.74545C4.96579 1.97657 4.6142 1.77542 4.36521 1.77784L4.3564 1.77793V1.77788C3.20325 1.77788 2.58071 2.01942 2.25701 2.28226C1.96474 2.51958 1.79862 2.87043 1.79435 3.42308C1.78989 3.99987 1.96792 4.73052 2.31836 5.57043C2.66459 6.40028 3.15645 7.28335 3.7232 8.14847L3.72748 8.15501L3.72745 8.15503C5.88858 11.5181 9.61295 13.7875 13.6162 14.2207C13.9175 14.2438 14.2069 13.9783 14.2057 13.6818L14.2057 13.6782C14.2057 12.1414 14.0554 11.724 13.8451 11.4906C13.7317 11.3648 13.5406 11.2279 13.1481 11.0501C12.8029 10.8937 12.3748 10.7362 11.8006 10.525C11.7109 10.492 11.6175 10.4576 11.5204 10.4218L11.5183 10.421C11.3507 10.3587 11.217 10.3709 10.9781 10.5373C10.7633 10.6869 10.5879 10.8693 10.3638 11.1024C10.264 11.2062 10.1546 11.32 10.0278 11.4455C9.74235 11.7277 9.30195 11.7866 8.95124 11.5894C7.00408 10.4945 5.39163 8.90016 4.28419 6.97425C4.08397 6.62604 4.14366 6.18814 4.42995 5.90504C4.54574 5.79054 4.67318 5.67556 4.7849 5.57476C4.80337 5.55809 4.82141 5.54182 4.83889 5.526C4.97042 5.40699 5.08357 5.30234 5.18343 5.19771C5.39015 4.9811 5.46628 4.83816 5.48828 4.73616C5.58063 4.30795 5.53164 3.46954 5.2572 2.74545ZM6.93694 2.12045C7.31049 3.10608 7.41877 4.29238 7.24294 5.10768C7.11897 5.68245 6.77796 6.11445 6.48712 6.41919C6.39582 6.51485 6.30196 6.60548 6.21221 6.68914C7.00788 7.88142 8.0408 8.90142 9.248 9.68669C9.45816 9.47744 9.6998 9.25449 9.94635 9.08278C10.4965 8.69964 11.2526 8.42391 12.1475 8.75613C12.2397 8.79014 12.3304 8.82347 12.4195 8.85621C12.9837 9.06353 13.4839 9.24738 13.8943 9.43328C14.3764 9.65169 14.8282 9.91236 15.1835 10.3066C15.9103 11.1131 15.9999 12.2252 16 13.6769C16.0041 15.0361 14.7907 16.1108 13.4489 15.9909L13.4328 15.9893C8.89269 15.5014 4.67594 12.9388 2.21608 9.11319C1.60932 8.18667 1.0595 7.20668 0.660192 6.24963C0.264617 5.30154 -0.00690767 4.32039 0.000133807 3.40946C0.00736191 2.47439 0.313791 1.56161 1.11971 0.907208C1.89343 0.278956 2.99331 0.000631042 4.35236 8.11349e-05C5.79498 -0.0113176 6.58075 1.18066 6.93694 2.12045ZM16 13.6769C16 13.6774 16 13.6778 16 13.6782H15.1029L16 13.6746C16 13.6754 16 13.6762 16 13.6769Z" fill="#007BFF"/>
</svg>
